<?xml version="1.0" encoding="UTF-8"?>
<svg id="Layer_2" data-name="Layer 2" xmlns="http://www.w3.org/2000/svg" viewBox="0 0 1424.88 976.01">
  <defs>
    <style>
      .cls-1 {
        fill: #005d63;
      }
    </style>
  </defs>
  <g id="Layer_1-2" data-name="Layer 1">
    <g>
      <path class="cls-1" d="m1408.4,128.17v-54.93h-53.68s0-1.73,0-1.73h70.16s0,114.89,0,114.89h-70.16s0-1.57,0-1.57h53.68v-55.09s0-1.57,0-1.57Z"/>
      <path class="cls-1" d="m1342.42,58.23v54.93h53.68s0,1.73,0,1.73h-70.16s0-114.89,0-114.89h70.16s0,1.57,0,1.57h-53.68v55.09s0,1.57,0,1.57Z"/>
      <path class="cls-1" d="m1342.42,201.41v54.93h53.68s0,1.73,0,1.73h-70.16s0-114.89,0-114.89h70.16s0,1.57,0,1.57h-53.68v55.09s0,1.57,0,1.57Z"/>
      <path class="cls-1" d="m1408.4,271.86v-54.93h-53.68s0-1.73,0-1.73h70.16s0,114.89,0,114.89h-70.16s0-1.57,0-1.57h53.68v-55.09s0-1.57,0-1.57Z"/>
      <path class="cls-1" d="m1342.42,344.6v54.93h53.68s0,1.73,0,1.73h-70.16s0-114.89,0-114.89h70.16s0,1.57,0,1.57h-53.68v55.09s0,1.57,0,1.57Z"/>
      <path class="cls-1" d="m1408.4,415.54v-54.93h-53.68s0-1.73,0-1.73h70.16s0,114.89,0,114.89h-70.16s0-1.57,0-1.57h53.68v-55.09s0-1.57,0-1.57Z"/>
      <path class="cls-1" d="m1342.42,488.29v54.93h53.68s0,1.73,0,1.73h-70.16s0-114.89,0-114.89h70.16s0,1.57,0,1.57h-53.68v55.09s0,1.57,0,1.57Z"/>
      <path class="cls-1" d="m1408.4,559.23v-54.93h-53.68s0-1.73,0-1.73h70.16s0,114.89,0,114.89h-70.16s0-1.57,0-1.57h53.68v-55.09s0-1.57,0-1.57Z"/>
      <path class="cls-1" d="m1342.42,631.97v54.93h53.68s0,1.73,0,1.73h-70.16s0-114.89,0-114.89h70.16s0,1.57,0,1.57h-53.68v55.09s0,1.57,0,1.57Z"/>
      <path class="cls-1" d="m1408.4,702.92v-54.93h-53.68s0-1.73,0-1.73h70.16s0,114.89,0,114.89h-70.16s0-1.57,0-1.57h53.68v-55.09s0-1.57,0-1.57Z"/>
      <path class="cls-1" d="m1342.42,775.66v54.93h53.68s0,1.73,0,1.73h-70.16s0-114.89,0-114.89h70.16s0,1.57,0,1.57h-53.68v55.09s0,1.57,0,1.57Z"/>
      <path class="cls-1" d="m1408.4,846.61v-54.93h-53.68s0-1.73,0-1.73h70.16s0,114.89,0,114.89h-70.16s0-1.57,0-1.57h53.68v-55.09s0-1.57,0-1.57Z"/>
      <path class="cls-1" d="m1342.42,919.35v54.93h53.68s0,1.73,0,1.73h-70.16s0-114.89,0-114.89h70.16s0,1.57,0,1.57h-53.68v55.09s0,1.57,0,1.57Z"/>
      <path class="cls-1" d="m1276.41,128.17v-54.93h-53.68s0-1.73,0-1.73h70.16s0,114.89,0,114.89h-70.16s0-1.57,0-1.57h53.68v-55.09s0-1.57,0-1.57Z"/>
      <path class="cls-1" d="m1210.43,58.23v54.93h53.68s0,1.73,0,1.73h-70.16s0-114.89,0-114.89h70.16s0,1.57,0,1.57h-53.68v55.09s0,1.57,0,1.57Z"/>
      <path class="cls-1" d="m1210.43,201.41v54.93h53.68s0,1.73,0,1.73h-70.16s0-114.89,0-114.89h70.16s0,1.57,0,1.57h-53.68v55.09s0,1.57,0,1.57Z"/>
      <path class="cls-1" d="m1276.41,271.86v-54.93h-53.68s0-1.73,0-1.73h70.16s0,114.89,0,114.89h-70.16s0-1.57,0-1.57h53.68v-55.09s0-1.57,0-1.57Z"/>
      <path class="cls-1" d="m1210.43,344.6v54.93h53.68s0,1.73,0,1.73h-70.16s0-114.89,0-114.89h70.16s0,1.57,0,1.57h-53.68v55.09s0,1.57,0,1.57Z"/>
      <path class="cls-1" d="m1276.41,415.54v-54.93h-53.68s0-1.73,0-1.73h70.16s0,114.89,0,114.89h-70.16s0-1.57,0-1.57h53.68v-55.09s0-1.57,0-1.57Z"/>
      <path class="cls-1" d="m1210.43,488.29v54.93h53.68s0,1.73,0,1.73h-70.16s0-114.89,0-114.89h70.16s0,1.57,0,1.57h-53.68v55.09s0,1.57,0,1.57Z"/>
      <path class="cls-1" d="m1276.41,559.23v-54.93h-53.68s0-1.73,0-1.73h70.16s0,114.89,0,114.89h-70.16s0-1.57,0-1.57h53.68v-55.09s0-1.57,0-1.57Z"/>
      <path class="cls-1" d="m1210.43,631.97v54.93h53.68s0,1.73,0,1.73h-70.16s0-114.89,0-114.89h70.16s0,1.57,0,1.57h-53.68v55.09s0,1.57,0,1.57Z"/>
      <path class="cls-1" d="m1276.41,702.92v-54.93h-53.68s0-1.73,0-1.73h70.16s0,114.89,0,114.89h-70.16s0-1.57,0-1.57h53.68v-55.09s0-1.57,0-1.57Z"/>
      <path class="cls-1" d="m1210.43,775.66v54.93h53.68s0,1.73,0,1.73h-70.16s0-114.89,0-114.89h70.16s0,1.57,0,1.57h-53.68v55.09s0,1.57,0,1.57Z"/>
      <path class="cls-1" d="m1276.41,846.61v-54.93h-53.68s0-1.73,0-1.73h70.16s0,114.89,0,114.89h-70.16s0-1.57,0-1.57h53.68v-55.09s0-1.57,0-1.57Z"/>
      <path class="cls-1" d="m1210.43,919.35v54.93h53.68s0,1.73,0,1.73h-70.16s0-114.89,0-114.89h70.16s0,1.57,0,1.57h-53.68v55.09s0,1.57,0,1.57Z"/>
      <path class="cls-1" d="m1144.41,128.17v-54.93h-53.68s0-1.73,0-1.73h70.16s0,114.89,0,114.89h-70.16s0-1.57,0-1.57h53.68v-55.09s0-1.57,0-1.57Z"/>
      <path class="cls-1" d="m1078.43,58.23v54.93h53.68s0,1.73,0,1.73h-70.16s0-114.89,0-114.89h70.16s0,1.57,0,1.57h-53.68v55.09s0,1.57,0,1.57Z"/>
      <path class="cls-1" d="m1078.43,201.41v54.93h53.68s0,1.73,0,1.73h-70.16s0-114.89,0-114.89h70.16s0,1.57,0,1.57h-53.68v55.09s0,1.57,0,1.57Z"/>
      <path class="cls-1" d="m1144.41,271.86v-54.93h-53.68s0-1.73,0-1.73h70.16s0,114.89,0,114.89h-70.16s0-1.57,0-1.57h53.68v-55.09s0-1.57,0-1.57Z"/>
      <path class="cls-1" d="m1078.43,344.6v54.93h53.68s0,1.73,0,1.73h-70.16s0-114.89,0-114.89h70.16s0,1.57,0,1.57h-53.68v55.09s0,1.57,0,1.57Z"/>
      <path class="cls-1" d="m1144.41,415.54v-54.93h-53.68s0-1.73,0-1.73h70.16s0,114.89,0,114.89h-70.16s0-1.57,0-1.57h53.68v-55.09s0-1.57,0-1.57Z"/>
      <path class="cls-1" d="m1078.43,488.29v54.93h53.68s0,1.73,0,1.73h-70.16s0-114.89,0-114.89h70.16s0,1.57,0,1.57h-53.68v55.09s0,1.57,0,1.57Z"/>
      <path class="cls-1" d="m1144.41,559.23v-54.93h-53.68s0-1.73,0-1.73h70.16s0,114.89,0,114.89h-70.16s0-1.57,0-1.57h53.68v-55.09s0-1.57,0-1.57Z"/>
      <path class="cls-1" d="m1078.43,631.97v54.93h53.68s0,1.73,0,1.73h-70.16s0-114.89,0-114.89h70.16s0,1.57,0,1.57h-53.68v55.09s0,1.57,0,1.57Z"/>
      <path class="cls-1" d="m1144.41,702.92v-54.93h-53.68s0-1.73,0-1.73h70.16s0,114.89,0,114.89h-70.16s0-1.57,0-1.57h53.68v-55.09s0-1.57,0-1.57Z"/>
      <path class="cls-1" d="m1078.43,775.66v54.93h53.68s0,1.73,0,1.73h-70.16s0-114.89,0-114.89h70.16s0,1.57,0,1.57h-53.68v55.09s0,1.57,0,1.57Z"/>
      <path class="cls-1" d="m1144.41,846.61v-54.93h-53.68s0-1.73,0-1.73h70.16s0,114.89,0,114.89h-70.16s0-1.57,0-1.57h53.68v-55.09s0-1.57,0-1.57Z"/>
      <path class="cls-1" d="m1078.43,919.35v54.93h53.68s0,1.73,0,1.73h-70.16s0-114.89,0-114.89h70.16s0,1.57,0,1.57h-53.68v55.09s0,1.57,0,1.57Z"/>
      <path class="cls-1" d="m1012.41,128.17v-54.93h-53.68s0-1.73,0-1.73h70.16s0,114.89,0,114.89h-70.16s0-1.57,0-1.57h53.68v-55.09s0-1.57,0-1.57Z"/>
      <path class="cls-1" d="m946.43,58.23v54.93h53.68s0,1.73,0,1.73h-70.16s0-114.89,0-114.89h70.16s0,1.57,0,1.57h-53.68v55.09s0,1.57,0,1.57Z"/>
      <path class="cls-1" d="m946.43,201.41v54.93h53.68s0,1.73,0,1.73h-70.16s0-114.89,0-114.89h70.16s0,1.57,0,1.57h-53.68v55.09s0,1.57,0,1.57Z"/>
      <path class="cls-1" d="m1012.41,271.86v-54.93h-53.68s0-1.73,0-1.73h70.16s0,114.89,0,114.89h-70.16s0-1.57,0-1.57h53.68v-55.09s0-1.57,0-1.57Z"/>
      <path class="cls-1" d="m946.43,344.6v54.93h53.68s0,1.73,0,1.73h-70.16s0-114.89,0-114.89h70.16s0,1.57,0,1.57h-53.68v55.09s0,1.57,0,1.57Z"/>
      <path class="cls-1" d="m1012.41,415.54v-54.93h-53.68s0-1.73,0-1.73h70.16s0,114.89,0,114.89h-70.16s0-1.57,0-1.57h53.68v-55.09s0-1.57,0-1.57Z"/>
      <path class="cls-1" d="m946.43,488.29v54.93h53.68s0,1.73,0,1.73h-70.16s0-114.89,0-114.89h70.16s0,1.57,0,1.57h-53.68v55.09s0,1.57,0,1.57Z"/>
      <path class="cls-1" d="m1012.41,559.23v-54.93h-53.68s0-1.73,0-1.73h70.16s0,114.89,0,114.89h-70.16s0-1.57,0-1.57h53.68v-55.09s0-1.57,0-1.57Z"/>
      <path class="cls-1" d="m946.43,631.97v54.93h53.68s0,1.73,0,1.73h-70.16s0-114.89,0-114.89h70.16s0,1.57,0,1.57h-53.68v55.09s0,1.57,0,1.57Z"/>
      <path class="cls-1" d="m1012.41,702.92v-54.93h-53.68s0-1.73,0-1.73h70.16s0,114.89,0,114.89h-70.16s0-1.57,0-1.57h53.68v-55.09s0-1.57,0-1.57Z"/>
      <path class="cls-1" d="m946.43,775.66v54.93h53.68s0,1.73,0,1.73h-70.16s0-114.89,0-114.89h70.16s0,1.57,0,1.57h-53.68v55.09s0,1.57,0,1.57Z"/>
      <path class="cls-1" d="m1012.41,846.61v-54.93h-53.68s0-1.73,0-1.73h70.16s0,114.89,0,114.89h-70.16s0-1.57,0-1.57h53.68v-55.09s0-1.57,0-1.57Z"/>
      <path class="cls-1" d="m946.43,919.35v54.93h53.68s0,1.73,0,1.73h-70.16s0-114.89,0-114.89h70.16s0,1.57,0,1.57h-53.68v55.09s0,1.57,0,1.57Z"/>
      <path class="cls-1" d="m880.42,128.17v-54.93h-53.68s0-1.73,0-1.73h70.16s0,114.89,0,114.89h-70.16s0-1.57,0-1.57h53.68v-55.09s0-1.57,0-1.57Z"/>
      <path class="cls-1" d="m814.44,58.23v54.93h53.68s0,1.73,0,1.73h-70.16s0-114.89,0-114.89h70.16s0,1.57,0,1.57h-53.68v55.09s0,1.57,0,1.57Z"/>
      <path class="cls-1" d="m814.44,201.41v54.93h53.68s0,1.73,0,1.73h-70.16s0-114.89,0-114.89h70.16s0,1.57,0,1.57h-53.68v55.09s0,1.57,0,1.57Z"/>
      <path class="cls-1" d="m880.42,271.86v-54.93h-53.68s0-1.73,0-1.73h70.16s0,114.89,0,114.89h-70.16s0-1.57,0-1.57h53.68v-55.09s0-1.57,0-1.57Z"/>
      <path class="cls-1" d="m814.44,344.6v54.93h53.68s0,1.73,0,1.73h-70.16s0-114.89,0-114.89h70.16s0,1.57,0,1.57h-53.68v55.09s0,1.57,0,1.57Z"/>
      <path class="cls-1" d="m880.42,415.54v-54.93h-53.68s0-1.73,0-1.73h70.16s0,114.89,0,114.89h-70.16s0-1.57,0-1.57h53.68v-55.09s0-1.57,0-1.57Z"/>
      <path class="cls-1" d="m814.44,488.29v54.93h53.68s0,1.73,0,1.73h-70.16s0-114.89,0-114.89h70.16s0,1.57,0,1.57h-53.68v55.09s0,1.57,0,1.57Z"/>
      <path class="cls-1" d="m880.42,559.23v-54.93h-53.68s0-1.73,0-1.73h70.16s0,114.89,0,114.89h-70.16s0-1.57,0-1.57h53.68v-55.09s0-1.57,0-1.57Z"/>
      <path class="cls-1" d="m814.44,631.97v54.93h53.68s0,1.73,0,1.73h-70.16s0-114.89,0-114.89h70.16s0,1.57,0,1.57h-53.68v55.09s0,1.57,0,1.57Z"/>
      <path class="cls-1" d="m880.42,702.92v-54.93h-53.68s0-1.73,0-1.73h70.16s0,114.89,0,114.89h-70.16s0-1.57,0-1.57h53.68v-55.09s0-1.57,0-1.57Z"/>
      <path class="cls-1" d="m814.44,775.66v54.93h53.68s0,1.73,0,1.73h-70.16s0-114.89,0-114.89h70.16s0,1.57,0,1.57h-53.68v55.09s0,1.57,0,1.57Z"/>
      <path class="cls-1" d="m880.42,846.61v-54.93h-53.68s0-1.73,0-1.73h70.16s0,114.89,0,114.89h-70.16s0-1.57,0-1.57h53.68v-55.09s0-1.57,0-1.57Z"/>
      <path class="cls-1" d="m814.44,919.35v54.93h53.68s0,1.73,0,1.73h-70.16s0-114.89,0-114.89h70.16s0,1.57,0,1.57h-53.68v55.09s0,1.57,0,1.57Z"/>
      <path class="cls-1" d="m748.42,128.17v-54.93h-53.68s0-1.73,0-1.73h70.16s0,114.89,0,114.89h-70.16s0-1.57,0-1.57h53.68v-55.09s0-1.57,0-1.57Z"/>
      <path class="cls-1" d="m682.44,58.23v54.93h53.68s0,1.73,0,1.73h-70.16s0-114.89,0-114.89h70.16s0,1.57,0,1.57h-53.68v55.09s0,1.57,0,1.57Z"/>
      <path class="cls-1" d="m682.44,201.41v54.93h53.68s0,1.73,0,1.73h-70.16s0-114.89,0-114.89h70.16s0,1.57,0,1.57h-53.68v55.09s0,1.57,0,1.57Z"/>
      <path class="cls-1" d="m748.42,271.86v-54.93h-53.68s0-1.73,0-1.73h70.16s0,114.89,0,114.89h-70.16s0-1.57,0-1.57h53.68v-55.09s0-1.57,0-1.57Z"/>
      <path class="cls-1" d="m682.44,344.6v54.93h53.68s0,1.73,0,1.73h-70.16s0-114.89,0-114.89h70.16s0,1.57,0,1.57h-53.68v55.09s0,1.57,0,1.57Z"/>
      <path class="cls-1" d="m748.42,415.54v-54.93h-53.68s0-1.73,0-1.73h70.16s0,114.89,0,114.89h-70.16s0-1.57,0-1.57h53.68v-55.09s0-1.57,0-1.57Z"/>
      <path class="cls-1" d="m682.44,488.29v54.93h53.68s0,1.73,0,1.73h-70.16s0-114.89,0-114.89h70.16s0,1.57,0,1.57h-53.68v55.09s0,1.57,0,1.57Z"/>
      <path class="cls-1" d="m748.42,559.23v-54.93h-53.68s0-1.73,0-1.73h70.16s0,114.89,0,114.89h-70.16s0-1.57,0-1.57h53.68v-55.09s0-1.57,0-1.57Z"/>
      <path class="cls-1" d="m682.44,631.97v54.93h53.68s0,1.73,0,1.73h-70.16s0-114.89,0-114.89h70.16s0,1.57,0,1.57h-53.68v55.09s0,1.57,0,1.57Z"/>
      <path class="cls-1" d="m748.42,702.92v-54.93h-53.68s0-1.73,0-1.73h70.16s0,114.89,0,114.89h-70.16s0-1.57,0-1.57h53.68v-55.09s0-1.57,0-1.57Z"/>
      <path class="cls-1" d="m682.44,775.66v54.93h53.68s0,1.73,0,1.73h-70.16s0-114.89,0-114.89h70.16s0,1.57,0,1.57h-53.68v55.09s0,1.57,0,1.57Z"/>
      <path class="cls-1" d="m748.42,846.61v-54.93h-53.68s0-1.73,0-1.73h70.16s0,114.89,0,114.89h-70.16s0-1.57,0-1.57h53.68v-55.09s0-1.57,0-1.57Z"/>
      <path class="cls-1" d="m682.44,919.35v54.93h53.68s0,1.73,0,1.73h-70.16s0-114.89,0-114.89h70.16s0,1.57,0,1.57h-53.68v55.09s0,1.57,0,1.57Z"/>
      <path class="cls-1" d="m616.42,128.17v-54.93h-53.68s0-1.73,0-1.73h70.16s0,114.89,0,114.89h-70.16s0-1.57,0-1.57h53.68v-55.09s0-1.57,0-1.57Z"/>
      <path class="cls-1" d="m550.45,58.23v54.93h53.68s0,1.73,0,1.73h-70.16s0-114.89,0-114.89h70.16s0,1.57,0,1.57h-53.68v55.09s0,1.57,0,1.57Z"/>
      <path class="cls-1" d="m550.45,201.41v54.93h53.68s0,1.73,0,1.73h-70.16s0-114.89,0-114.89h70.16s0,1.57,0,1.57h-53.68v55.09s0,1.57,0,1.57Z"/>
      <path class="cls-1" d="m616.42,271.86v-54.93h-53.68s0-1.73,0-1.73h70.16s0,114.89,0,114.89h-70.16s0-1.57,0-1.57h53.68v-55.09s0-1.57,0-1.57Z"/>
      <path class="cls-1" d="m550.45,344.6v54.93h53.68s0,1.73,0,1.73h-70.16s0-114.89,0-114.89h70.16s0,1.57,0,1.57h-53.68v55.09s0,1.57,0,1.57Z"/>
      <path class="cls-1" d="m616.42,415.54v-54.93h-53.68s0-1.73,0-1.73h70.16s0,114.89,0,114.89h-70.16s0-1.57,0-1.57h53.68v-55.09s0-1.57,0-1.57Z"/>
      <path class="cls-1" d="m550.45,488.29v54.93h53.68s0,1.73,0,1.73h-70.16s0-114.89,0-114.89h70.16s0,1.57,0,1.57h-53.68v55.09s0,1.57,0,1.57Z"/>
      <path class="cls-1" d="m616.42,559.23v-54.93h-53.68s0-1.73,0-1.73h70.16s0,114.89,0,114.89h-70.16s0-1.57,0-1.57h53.68v-55.09s0-1.57,0-1.57Z"/>
      <path class="cls-1" d="m550.45,631.97v54.93h53.68s0,1.73,0,1.73h-70.16s0-114.89,0-114.89h70.16s0,1.57,0,1.57h-53.68v55.09s0,1.57,0,1.57Z"/>
      <path class="cls-1" d="m616.42,702.92v-54.93h-53.68s0-1.73,0-1.73h70.16s0,114.89,0,114.89h-70.16s0-1.57,0-1.57h53.68v-55.09s0-1.57,0-1.57Z"/>
      <path class="cls-1" d="m550.45,775.66v54.93h53.68s0,1.73,0,1.73h-70.16s0-114.89,0-114.89h70.16s0,1.57,0,1.57h-53.68v55.09s0,1.57,0,1.57Z"/>
      <path class="cls-1" d="m616.42,846.61v-54.93h-53.68s0-1.73,0-1.73h70.16s0,114.89,0,114.89h-70.16s0-1.57,0-1.57h53.68v-55.09s0-1.57,0-1.57Z"/>
      <path class="cls-1" d="m550.45,919.35v54.93h53.68s0,1.73,0,1.73h-70.16s0-114.89,0-114.89h70.16s0,1.57,0,1.57h-53.68v55.09s0,1.57,0,1.57Z"/>
      <path class="cls-1" d="m484.43,128.17v-54.93h-53.68s0-1.73,0-1.73h70.16s0,114.89,0,114.89h-70.16s0-1.57,0-1.57h53.68v-55.09s0-1.57,0-1.57Z"/>
      <path class="cls-1" d="m418.45,58.23v54.93h53.68s0,1.73,0,1.73h-70.16s0-114.89,0-114.89h70.16s0,1.57,0,1.57h-53.68v55.09s0,1.57,0,1.57Z"/>
      <path class="cls-1" d="m418.45,201.41v54.93h53.68s0,1.73,0,1.73h-70.16s0-114.89,0-114.89h70.16s0,1.57,0,1.57h-53.68v55.09s0,1.57,0,1.57Z"/>
      <path class="cls-1" d="m484.43,271.86v-54.93h-53.68s0-1.73,0-1.73h70.16s0,114.89,0,114.89h-70.16s0-1.57,0-1.57h53.68v-55.09s0-1.57,0-1.57Z"/>
      <path class="cls-1" d="m418.45,344.6v54.93h53.68s0,1.73,0,1.73h-70.16s0-114.89,0-114.89h70.16s0,1.57,0,1.57h-53.68v55.09s0,1.57,0,1.57Z"/>
      <path class="cls-1" d="m484.43,415.54v-54.93h-53.68s0-1.73,0-1.73h70.16s0,114.89,0,114.89h-70.16s0-1.57,0-1.57h53.68v-55.09s0-1.57,0-1.57Z"/>
      <path class="cls-1" d="m418.45,488.29v54.93h53.68s0,1.73,0,1.73h-70.16s0-114.89,0-114.89h70.16s0,1.57,0,1.57h-53.68v55.09s0,1.57,0,1.57Z"/>
      <path class="cls-1" d="m484.43,559.23v-54.93h-53.68s0-1.73,0-1.73h70.16s0,114.89,0,114.89h-70.16s0-1.57,0-1.57h53.68v-55.09s0-1.57,0-1.57Z"/>
      <path class="cls-1" d="m418.45,631.97v54.93h53.68s0,1.73,0,1.73h-70.16s0-114.89,0-114.89h70.16s0,1.57,0,1.57h-53.68v55.09s0,1.57,0,1.57Z"/>
      <path class="cls-1" d="m484.43,702.92v-54.93h-53.68s0-1.73,0-1.73h70.16s0,114.89,0,114.89h-70.16s0-1.57,0-1.57h53.68v-55.09s0-1.57,0-1.57Z"/>
      <path class="cls-1" d="m418.45,775.66v54.93h53.68s0,1.73,0,1.73h-70.16s0-114.89,0-114.89h70.16s0,1.57,0,1.57h-53.68v55.09s0,1.57,0,1.57Z"/>
      <path class="cls-1" d="m484.43,846.61v-54.93h-53.68s0-1.73,0-1.73h70.16s0,114.89,0,114.89h-70.16s0-1.57,0-1.57h53.68v-55.09s0-1.57,0-1.57Z"/>
      <path class="cls-1" d="m418.45,919.35v54.93h53.68s0,1.73,0,1.73h-70.16s0-114.89,0-114.89h70.16s0,1.57,0,1.57h-53.68v55.09s0,1.57,0,1.57Z"/>
      <path class="cls-1" d="m352.43,128.17v-54.93h-53.68s0-1.73,0-1.73h70.16s0,114.89,0,114.89h-70.16s0-1.57,0-1.57h53.68v-55.09s0-1.57,0-1.57Z"/>
      <path class="cls-1" d="m286.45,58.23v54.93h53.68s0,1.73,0,1.73h-70.16s0-114.89,0-114.89h70.16s0,1.57,0,1.57h-53.68v55.09s0,1.57,0,1.57Z"/>
      <path class="cls-1" d="m286.45,201.41v54.93h53.68s0,1.73,0,1.73h-70.16s0-114.89,0-114.89h70.16s0,1.57,0,1.57h-53.68v55.09s0,1.57,0,1.57Z"/>
      <path class="cls-1" d="m352.43,271.86v-54.93h-53.68s0-1.73,0-1.73h70.16s0,114.89,0,114.89h-70.16s0-1.57,0-1.57h53.68v-55.09s0-1.57,0-1.57Z"/>
      <path class="cls-1" d="m286.45,344.6v54.93h53.68s0,1.73,0,1.73h-70.16s0-114.89,0-114.89h70.16s0,1.57,0,1.57h-53.68v55.09s0,1.57,0,1.57Z"/>
      <path class="cls-1" d="m352.43,415.54v-54.93h-53.68s0-1.73,0-1.73h70.16s0,114.89,0,114.89h-70.16s0-1.57,0-1.57h53.68v-55.09s0-1.57,0-1.57Z"/>
      <path class="cls-1" d="m286.45,488.29v54.93h53.68s0,1.73,0,1.73h-70.16s0-114.89,0-114.89h70.16s0,1.57,0,1.57h-53.68v55.09s0,1.57,0,1.57Z"/>
      <path class="cls-1" d="m352.43,559.23v-54.93h-53.68s0-1.73,0-1.73h70.16s0,114.89,0,114.89h-70.16s0-1.57,0-1.57h53.68v-55.09s0-1.57,0-1.57Z"/>
      <path class="cls-1" d="m286.45,631.97v54.93h53.68s0,1.73,0,1.73h-70.16s0-114.89,0-114.89h70.16s0,1.57,0,1.57h-53.68v55.09s0,1.57,0,1.57Z"/>
      <path class="cls-1" d="m352.43,702.92v-54.93h-53.68s0-1.73,0-1.73h70.16s0,114.89,0,114.89h-70.16s0-1.57,0-1.57h53.68v-55.09s0-1.57,0-1.57Z"/>
      <path class="cls-1" d="m286.45,775.66v54.93h53.68s0,1.73,0,1.73h-70.16s0-114.89,0-114.89h70.16s0,1.57,0,1.57h-53.68v55.09s0,1.57,0,1.57Z"/>
      <path class="cls-1" d="m352.43,846.61v-54.93h-53.68s0-1.73,0-1.73h70.16s0,114.89,0,114.89h-70.16s0-1.57,0-1.57h53.68v-55.09s0-1.57,0-1.57Z"/>
      <path class="cls-1" d="m286.45,919.35v54.93h53.68s0,1.73,0,1.73h-70.16s0-114.89,0-114.89h70.16s0,1.57,0,1.57h-53.68v55.09s0,1.57,0,1.57Z"/>
      <path class="cls-1" d="m220.43,128.17v-54.93h-53.68s0-1.73,0-1.73h70.16s0,114.89,0,114.89h-70.16s0-1.57,0-1.57h53.68v-55.09s0-1.57,0-1.57Z"/>
      <path class="cls-1" d="m154.46,58.23v54.93h53.68s0,1.73,0,1.73h-70.16s0-114.89,0-114.89h70.16s0,1.57,0,1.57h-53.68v55.09s0,1.57,0,1.57Z"/>
      <path class="cls-1" d="m154.46,201.41v54.93h53.68s0,1.73,0,1.73h-70.16s0-114.89,0-114.89h70.16s0,1.57,0,1.57h-53.68v55.09s0,1.57,0,1.57Z"/>
      <path class="cls-1" d="m220.43,271.86v-54.93h-53.68s0-1.73,0-1.73h70.16s0,114.89,0,114.89h-70.16s0-1.57,0-1.57h53.68v-55.09s0-1.57,0-1.57Z"/>
      <path class="cls-1" d="m154.46,344.6v54.93h53.68s0,1.73,0,1.73h-70.16s0-114.89,0-114.89h70.16s0,1.57,0,1.57h-53.68v55.09s0,1.57,0,1.57Z"/>
      <path class="cls-1" d="m220.43,415.54v-54.93h-53.68s0-1.73,0-1.73h70.16s0,114.89,0,114.89h-70.16s0-1.57,0-1.57h53.68v-55.09s0-1.57,0-1.57Z"/>
      <path class="cls-1" d="m154.46,488.29v54.93h53.68s0,1.73,0,1.73h-70.16s0-114.89,0-114.89h70.16s0,1.57,0,1.57h-53.68v55.09s0,1.57,0,1.57Z"/>
      <path class="cls-1" d="m220.43,559.23v-54.93h-53.68s0-1.73,0-1.73h70.16s0,114.89,0,114.89h-70.16s0-1.57,0-1.57h53.68v-55.09s0-1.57,0-1.57Z"/>
      <path class="cls-1" d="m154.46,631.97v54.93h53.68s0,1.73,0,1.73h-70.16s0-114.89,0-114.89h70.16s0,1.57,0,1.57h-53.68v55.09s0,1.57,0,1.57Z"/>
      <path class="cls-1" d="m220.43,702.92v-54.93h-53.68s0-1.73,0-1.73h70.16s0,114.89,0,114.89h-70.16s0-1.57,0-1.57h53.68v-55.09s0-1.57,0-1.57Z"/>
      <path class="cls-1" d="m154.46,775.66v54.93h53.68s0,1.73,0,1.73h-70.16s0-114.89,0-114.89h70.16s0,1.57,0,1.57h-53.68v55.09s0,1.57,0,1.57Z"/>
      <path class="cls-1" d="m220.43,846.61v-54.93h-53.68s0-1.73,0-1.73h70.16s0,114.89,0,114.89h-70.16s0-1.57,0-1.57h53.68v-55.09s0-1.57,0-1.57Z"/>
      <path class="cls-1" d="m154.46,919.35v54.93h53.68s0,1.73,0,1.73h-70.16s0-114.89,0-114.89h70.16s0,1.57,0,1.57h-53.68v55.09s0,1.57,0,1.57Z"/>
      <path class="cls-1" d="m82.46,128.17v-54.93H28.78s0-1.73,0-1.73h70.16s0,114.89,0,114.89H28.78s0-1.57,0-1.57h53.68v-55.09s0-1.57,0-1.57Z"/>
      <path class="cls-1" d="m16.48,58.23v54.93h53.68s0,1.73,0,1.73H0S0,0,0,0h70.16s0,1.57,0,1.57H16.48v55.09s0,1.57,0,1.57Z"/>
      <path class="cls-1" d="m16.48,201.41v54.93h53.68s0,1.73,0,1.73H0s0-114.89,0-114.89h70.16s0,1.57,0,1.57H16.48v55.09s0,1.57,0,1.57Z"/>
      <path class="cls-1" d="m82.46,271.86v-54.93H28.78s0-1.73,0-1.73h70.16s0,114.89,0,114.89H28.78s0-1.57,0-1.57h53.68v-55.09s0-1.57,0-1.57Z"/>
      <path class="cls-1" d="m16.48,344.6v54.93h53.68s0,1.73,0,1.73H0s0-114.89,0-114.89h70.16s0,1.57,0,1.57H16.48v55.09s0,1.57,0,1.57Z"/>
      <path class="cls-1" d="m82.46,415.54v-54.93H28.78s0-1.73,0-1.73h70.16s0,114.89,0,114.89H28.78s0-1.57,0-1.57h53.68v-55.09s0-1.57,0-1.57Z"/>
      <path class="cls-1" d="m16.48,488.29v54.93h53.68s0,1.73,0,1.73H0s0-114.89,0-114.89h70.16s0,1.57,0,1.57H16.48v55.09s0,1.57,0,1.57Z"/>
      <path class="cls-1" d="m82.46,559.23v-54.93H28.78s0-1.73,0-1.73h70.16s0,114.89,0,114.89H28.78s0-1.57,0-1.57h53.68v-55.09s0-1.57,0-1.57Z"/>
      <path class="cls-1" d="m16.48,631.97v54.93h53.68s0,1.73,0,1.73H0s0-114.89,0-114.89h70.16s0,1.57,0,1.57H16.48v55.09s0,1.57,0,1.57Z"/>
      <path class="cls-1" d="m82.46,702.92v-54.93H28.78s0-1.73,0-1.73h70.16s0,114.89,0,114.89H28.78s0-1.57,0-1.57h53.68v-55.09s0-1.57,0-1.57Z"/>
      <path class="cls-1" d="m16.48,775.66v54.93h53.68s0,1.73,0,1.73H0s0-114.89,0-114.89h70.16s0,1.57,0,1.57H16.48v55.09s0,1.57,0,1.57Z"/>
      <path class="cls-1" d="m82.46,846.61v-54.93H28.78s0-1.73,0-1.73h70.16s0,114.89,0,114.89H28.78s0-1.57,0-1.57h53.68v-55.09s0-1.57,0-1.57Z"/>
      <path class="cls-1" d="m16.48,919.35v54.93h53.68s0,1.73,0,1.73H0s0-114.89,0-114.89h70.16s0,1.57,0,1.57H16.48v55.09s0,1.57,0,1.57Z"/>
    </g>
  </g>
</svg>